<mxfile host="app.diagrams.net" modified="2021-04-29T23:12:15.687Z" agent="5.0 (Windows NT 10.0; Win64; x64) AppleWebKit/537.36 (KHTML, like Gecko) Chrome/90.0.4430.85 Safari/537.36" etag="bohb5uTp0lAUtAKjq1Sv" version="14.6.6" type="github">
  <diagram id="cjHbuR5uFcHh2thT_gq6" name="Page-1">
    <mxGraphModel dx="1736" dy="786" grid="1" gridSize="10" guides="1" tooltips="1" connect="1" arrows="1" fold="1" page="1" pageScale="1" pageWidth="850" pageHeight="1100" math="0" shadow="0">
      <root>
        <mxCell id="0" />
        <mxCell id="1" parent="0" />
        <mxCell id="ppZnf8ea8f8Y_9gXTPTr-5" value="Users" style="swimlane;fontStyle=1;align=center;verticalAlign=top;childLayout=stackLayout;horizontal=1;startSize=26;horizontalStack=0;resizeParent=1;resizeParentMax=0;resizeLast=0;collapsible=1;marginBottom=0;" parent="1" vertex="1">
          <mxGeometry x="40" y="274" width="160" height="210" as="geometry" />
        </mxCell>
        <mxCell id="ppZnf8ea8f8Y_9gXTPTr-6" value="+idUser int&#xa;+ name string&#xa;+ User string&#xa;+ email string&#xa;+ password string&#xa;+UserType string" style="text;strokeColor=none;fillColor=none;align=left;verticalAlign=top;spacingLeft=4;spacingRight=4;overflow=hidden;rotatable=0;points=[[0,0.5],[1,0.5]];portConstraint=eastwest;" parent="ppZnf8ea8f8Y_9gXTPTr-5" vertex="1">
          <mxGeometry y="26" width="160" height="114" as="geometry" />
        </mxCell>
        <mxCell id="ppZnf8ea8f8Y_9gXTPTr-7" value="" style="line;strokeWidth=1;fillColor=none;align=left;verticalAlign=middle;spacingTop=-1;spacingLeft=3;spacingRight=3;rotatable=0;labelPosition=right;points=[];portConstraint=eastwest;" parent="ppZnf8ea8f8Y_9gXTPTr-5" vertex="1">
          <mxGeometry y="140" width="160" height="8" as="geometry" />
        </mxCell>
        <mxCell id="ppZnf8ea8f8Y_9gXTPTr-8" value="+ Signin() void&#xa;+Signout() void" style="text;strokeColor=none;fillColor=none;align=left;verticalAlign=top;spacingLeft=4;spacingRight=4;overflow=hidden;rotatable=0;points=[[0,0.5],[1,0.5]];portConstraint=eastwest;" parent="ppZnf8ea8f8Y_9gXTPTr-5" vertex="1">
          <mxGeometry y="148" width="160" height="62" as="geometry" />
        </mxCell>
        <mxCell id="ppZnf8ea8f8Y_9gXTPTr-9" value="UserType" style="swimlane;fontStyle=1;align=center;verticalAlign=top;childLayout=stackLayout;horizontal=1;startSize=26;horizontalStack=0;resizeParent=1;resizeParentMax=0;resizeLast=0;collapsible=1;marginBottom=0;" parent="1" vertex="1">
          <mxGeometry x="40" y="80" width="160" height="114" as="geometry" />
        </mxCell>
        <mxCell id="ppZnf8ea8f8Y_9gXTPTr-10" value="+ idType int &#xa;+ name string" style="text;strokeColor=none;fillColor=none;align=left;verticalAlign=top;spacingLeft=4;spacingRight=4;overflow=hidden;rotatable=0;points=[[0,0.5],[1,0.5]];portConstraint=eastwest;" parent="ppZnf8ea8f8Y_9gXTPTr-9" vertex="1">
          <mxGeometry y="26" width="160" height="54" as="geometry" />
        </mxCell>
        <mxCell id="ppZnf8ea8f8Y_9gXTPTr-11" value="" style="line;strokeWidth=1;fillColor=none;align=left;verticalAlign=middle;spacingTop=-1;spacingLeft=3;spacingRight=3;rotatable=0;labelPosition=right;points=[];portConstraint=eastwest;" parent="ppZnf8ea8f8Y_9gXTPTr-9" vertex="1">
          <mxGeometry y="80" width="160" height="8" as="geometry" />
        </mxCell>
        <mxCell id="ppZnf8ea8f8Y_9gXTPTr-12" value="+asignUserType() string" style="text;strokeColor=none;fillColor=none;align=left;verticalAlign=top;spacingLeft=4;spacingRight=4;overflow=hidden;rotatable=0;points=[[0,0.5],[1,0.5]];portConstraint=eastwest;" parent="ppZnf8ea8f8Y_9gXTPTr-9" vertex="1">
          <mxGeometry y="88" width="160" height="26" as="geometry" />
        </mxCell>
        <mxCell id="ppZnf8ea8f8Y_9gXTPTr-13" value="Topics" style="swimlane;fontStyle=1;align=center;verticalAlign=top;childLayout=stackLayout;horizontal=1;startSize=26;horizontalStack=0;resizeParent=1;resizeParentMax=0;resizeLast=0;collapsible=1;marginBottom=0;" parent="1" vertex="1">
          <mxGeometry x="345" y="224" width="160" height="260" as="geometry" />
        </mxCell>
        <mxCell id="ppZnf8ea8f8Y_9gXTPTr-14" value="+ idTopics int&#xa;+ idUser int&#xa;+ Title string&#xa;+ content string&#xa;+ images string&#xa;+ videos media&#xa;+ idCategory int&#xa;+CreationDate DateTime" style="text;strokeColor=none;fillColor=none;align=left;verticalAlign=top;spacingLeft=4;spacingRight=4;overflow=hidden;rotatable=0;points=[[0,0.5],[1,0.5]];portConstraint=eastwest;" parent="ppZnf8ea8f8Y_9gXTPTr-13" vertex="1">
          <mxGeometry y="26" width="160" height="134" as="geometry" />
        </mxCell>
        <mxCell id="ppZnf8ea8f8Y_9gXTPTr-15" value="" style="line;strokeWidth=1;fillColor=none;align=left;verticalAlign=middle;spacingTop=-1;spacingLeft=3;spacingRight=3;rotatable=0;labelPosition=right;points=[];portConstraint=eastwest;" parent="ppZnf8ea8f8Y_9gXTPTr-13" vertex="1">
          <mxGeometry y="160" width="160" height="8" as="geometry" />
        </mxCell>
        <mxCell id="ppZnf8ea8f8Y_9gXTPTr-16" value="+ CreateTopic() void&#xa;+ SearchTopic() void&#xa;+ ValueTopic() void&#xa;+ VisualizeTopic() void" style="text;strokeColor=none;fillColor=none;align=left;verticalAlign=top;spacingLeft=4;spacingRight=4;overflow=hidden;rotatable=0;points=[[0,0.5],[1,0.5]];portConstraint=eastwest;" parent="ppZnf8ea8f8Y_9gXTPTr-13" vertex="1">
          <mxGeometry y="168" width="160" height="92" as="geometry" />
        </mxCell>
        <mxCell id="ppZnf8ea8f8Y_9gXTPTr-17" value="Comments" style="swimlane;fontStyle=1;align=center;verticalAlign=top;childLayout=stackLayout;horizontal=1;startSize=26;horizontalStack=0;resizeParent=1;resizeParentMax=0;resizeLast=0;collapsible=1;marginBottom=0;" parent="1" vertex="1">
          <mxGeometry x="660" y="180" width="160" height="154" as="geometry" />
        </mxCell>
        <mxCell id="ppZnf8ea8f8Y_9gXTPTr-18" value="+ post_id int &#xa;+ name string&#xa;+ comment string&#xa;+ Date DateTime&#xa;+ status int" style="text;strokeColor=none;fillColor=none;align=left;verticalAlign=top;spacingLeft=4;spacingRight=4;overflow=hidden;rotatable=0;points=[[0,0.5],[1,0.5]];portConstraint=eastwest;" parent="ppZnf8ea8f8Y_9gXTPTr-17" vertex="1">
          <mxGeometry y="26" width="160" height="94" as="geometry" />
        </mxCell>
        <mxCell id="ppZnf8ea8f8Y_9gXTPTr-19" value="" style="line;strokeWidth=1;fillColor=none;align=left;verticalAlign=middle;spacingTop=-1;spacingLeft=3;spacingRight=3;rotatable=0;labelPosition=right;points=[];portConstraint=eastwest;" parent="ppZnf8ea8f8Y_9gXTPTr-17" vertex="1">
          <mxGeometry y="120" width="160" height="8" as="geometry" />
        </mxCell>
        <mxCell id="ppZnf8ea8f8Y_9gXTPTr-20" value="+PublicarComentario() void" style="text;strokeColor=none;fillColor=none;align=left;verticalAlign=top;spacingLeft=4;spacingRight=4;overflow=hidden;rotatable=0;points=[[0,0.5],[1,0.5]];portConstraint=eastwest;" parent="ppZnf8ea8f8Y_9gXTPTr-17" vertex="1">
          <mxGeometry y="128" width="160" height="26" as="geometry" />
        </mxCell>
        <mxCell id="ppZnf8ea8f8Y_9gXTPTr-21" value="Category" style="swimlane;fontStyle=1;align=center;verticalAlign=top;childLayout=stackLayout;horizontal=1;startSize=26;horizontalStack=0;resizeParent=1;resizeParentMax=0;resizeLast=0;collapsible=1;marginBottom=0;" parent="1" vertex="1">
          <mxGeometry x="660" y="380" width="160" height="104" as="geometry" />
        </mxCell>
        <mxCell id="ppZnf8ea8f8Y_9gXTPTr-22" value="+idCategory int&#xa;+ category string" style="text;strokeColor=none;fillColor=none;align=left;verticalAlign=top;spacingLeft=4;spacingRight=4;overflow=hidden;rotatable=0;points=[[0,0.5],[1,0.5]];portConstraint=eastwest;" parent="ppZnf8ea8f8Y_9gXTPTr-21" vertex="1">
          <mxGeometry y="26" width="160" height="44" as="geometry" />
        </mxCell>
        <mxCell id="ppZnf8ea8f8Y_9gXTPTr-23" value="" style="line;strokeWidth=1;fillColor=none;align=left;verticalAlign=middle;spacingTop=-1;spacingLeft=3;spacingRight=3;rotatable=0;labelPosition=right;points=[];portConstraint=eastwest;" parent="ppZnf8ea8f8Y_9gXTPTr-21" vertex="1">
          <mxGeometry y="70" width="160" height="8" as="geometry" />
        </mxCell>
        <mxCell id="ppZnf8ea8f8Y_9gXTPTr-24" value="+asignCategory() void" style="text;strokeColor=none;fillColor=none;align=left;verticalAlign=top;spacingLeft=4;spacingRight=4;overflow=hidden;rotatable=0;points=[[0,0.5],[1,0.5]];portConstraint=eastwest;" parent="ppZnf8ea8f8Y_9gXTPTr-21" vertex="1">
          <mxGeometry y="78" width="160" height="26" as="geometry" />
        </mxCell>
        <mxCell id="ppZnf8ea8f8Y_9gXTPTr-25" value="" style="endArrow=none;html=1;exitX=0.5;exitY=0;exitDx=0;exitDy=0;" parent="1" source="ppZnf8ea8f8Y_9gXTPTr-5" target="ppZnf8ea8f8Y_9gXTPTr-12" edge="1">
          <mxGeometry width="50" height="50" relative="1" as="geometry">
            <mxPoint x="210" y="250" as="sourcePoint" />
            <mxPoint x="260" y="200" as="targetPoint" />
          </mxGeometry>
        </mxCell>
        <mxCell id="ppZnf8ea8f8Y_9gXTPTr-26" value="" style="endArrow=none;html=1;exitX=1;exitY=0.159;exitDx=0;exitDy=0;exitPerimeter=0;" parent="1" source="ppZnf8ea8f8Y_9gXTPTr-6" target="ppZnf8ea8f8Y_9gXTPTr-14" edge="1">
          <mxGeometry width="50" height="50" relative="1" as="geometry">
            <mxPoint x="170" y="390" as="sourcePoint" />
            <mxPoint x="220" y="340" as="targetPoint" />
          </mxGeometry>
        </mxCell>
        <mxCell id="ppZnf8ea8f8Y_9gXTPTr-27" value="" style="endArrow=none;html=1;entryX=0;entryY=0.787;entryDx=0;entryDy=0;entryPerimeter=0;exitX=1.021;exitY=0.227;exitDx=0;exitDy=0;exitPerimeter=0;" parent="1" source="ppZnf8ea8f8Y_9gXTPTr-14" target="ppZnf8ea8f8Y_9gXTPTr-18" edge="1">
          <mxGeometry width="50" height="50" relative="1" as="geometry">
            <mxPoint x="660" y="340" as="sourcePoint" />
            <mxPoint x="710" y="290" as="targetPoint" />
          </mxGeometry>
        </mxCell>
        <mxCell id="ppZnf8ea8f8Y_9gXTPTr-28" value="" style="endArrow=none;html=1;entryX=0;entryY=0.5;entryDx=0;entryDy=0;exitX=1.014;exitY=0.398;exitDx=0;exitDy=0;exitPerimeter=0;" parent="1" source="ppZnf8ea8f8Y_9gXTPTr-16" target="ppZnf8ea8f8Y_9gXTPTr-22" edge="1">
          <mxGeometry width="50" height="50" relative="1" as="geometry">
            <mxPoint x="500" y="490" as="sourcePoint" />
            <mxPoint x="550" y="440" as="targetPoint" />
          </mxGeometry>
        </mxCell>
        <mxCell id="ppZnf8ea8f8Y_9gXTPTr-29" value="1" style="text;html=1;strokeColor=none;fillColor=none;align=center;verticalAlign=middle;whiteSpace=wrap;rounded=0;" parent="1" vertex="1">
          <mxGeometry x="110" y="254" width="40" height="20" as="geometry" />
        </mxCell>
        <mxCell id="ppZnf8ea8f8Y_9gXTPTr-30" value="&lt;font style=&quot;font-size: 20px&quot;&gt;*&lt;/font&gt;" style="text;html=1;strokeColor=none;fillColor=none;align=center;verticalAlign=middle;whiteSpace=wrap;rounded=0;" parent="1" vertex="1">
          <mxGeometry x="620" y="410" width="40" height="20" as="geometry" />
        </mxCell>
        <mxCell id="ppZnf8ea8f8Y_9gXTPTr-33" value="1" style="text;html=1;strokeColor=none;fillColor=none;align=center;verticalAlign=middle;whiteSpace=wrap;rounded=0;" parent="1" vertex="1">
          <mxGeometry x="110" y="194" width="40" height="20" as="geometry" />
        </mxCell>
        <mxCell id="ppZnf8ea8f8Y_9gXTPTr-34" value="1" style="text;html=1;strokeColor=none;fillColor=none;align=center;verticalAlign=middle;whiteSpace=wrap;rounded=0;" parent="1" vertex="1">
          <mxGeometry x="200" y="300" width="40" height="20" as="geometry" />
        </mxCell>
        <mxCell id="ppZnf8ea8f8Y_9gXTPTr-35" value="&lt;font style=&quot;font-size: 20px&quot;&gt;*&lt;/font&gt;" style="text;html=1;strokeColor=none;fillColor=none;align=center;verticalAlign=middle;whiteSpace=wrap;rounded=0;" parent="1" vertex="1">
          <mxGeometry x="500" y="410" width="40" height="20" as="geometry" />
        </mxCell>
        <mxCell id="ppZnf8ea8f8Y_9gXTPTr-36" value="&lt;font style=&quot;font-size: 20px&quot;&gt;*&lt;/font&gt;" style="text;html=1;strokeColor=none;fillColor=none;align=center;verticalAlign=middle;whiteSpace=wrap;rounded=0;" parent="1" vertex="1">
          <mxGeometry x="630" y="260" width="40" height="20" as="geometry" />
        </mxCell>
        <mxCell id="ppZnf8ea8f8Y_9gXTPTr-37" value="&lt;font style=&quot;font-size: 20px&quot;&gt;*&lt;/font&gt;" style="text;html=1;strokeColor=none;fillColor=none;align=center;verticalAlign=middle;whiteSpace=wrap;rounded=0;" parent="1" vertex="1">
          <mxGeometry x="500" y="260" width="40" height="20" as="geometry" />
        </mxCell>
        <mxCell id="ppZnf8ea8f8Y_9gXTPTr-38" value="&lt;font style=&quot;font-size: 20px&quot;&gt;*&lt;/font&gt;" style="text;html=1;strokeColor=none;fillColor=none;align=center;verticalAlign=middle;whiteSpace=wrap;rounded=0;" parent="1" vertex="1">
          <mxGeometry x="300" y="300" width="40" height="20" as="geometry" />
        </mxCell>
      </root>
    </mxGraphModel>
  </diagram>
</mxfile>
